{
  "asset": {
    "version": "2.0",
    "generator": "THREE.GLTFExporter"
  },
  "scenes": [
    {
      "nodes": [
        0
      ]
    }
  ],
  "scene": 0,
  "nodes": [
    {
      "children": [
        11
      ],
      "matrix": [
        0.01,
        0,
        0,
        0,
        0,
        0.01,
        0,
        0,
        0,
        0,
        0.01,
        0,
        0,
        0,
        0,
        1
      ]
    },
    {
      "matrix": [
        100,
        0,
        0,
        0,
        0,
        -74.18999999999915,
        0.000011202378335068532,
        0,
        0,
        -0.000015082970371882945,
        -99.88999999999885,
        0,
        0,
        0,
        0,
        1
      ],
      "name": "mountain",
      "mesh": 0
    },
    {
      "mesh": 0
    },
    {
      "matrix": [
        1,
        0,
        0,
        0,
        0,
        1,
        0,
        0,
        0,
        0,
        1,
        0,
        0,
        0,
        1,
        1
      ],
      "mesh": 0
    },
    {
      "matrix": [
        100,
        0,
        0,
        0,
        0,
        -74.18999999999915,
        0.000011202378335068532,
        0,
        0,
        -0.000015082970371882945,
        -99.88999999999885,
        0,
        0,
        0,
        0,
        1
      ],
      "children": [
        2,
        3
      ]
    },
    {
      "matrix": [
        2.9773066906045886,
        0,
        -1.0883679846821803,
        0,
        0,
        3.34,
        0,
        0,
        2.0050690948088117,
        0,
        5.4850066476753305,
        0,
        7.022860925440675,
        0,
        19.211526905218417,
        1
      ],
      "name": "mountain2",
      "children": [
        1,
        4
      ]
    },
    {
      "matrix": [
        -1.5699999999999998,
        -3.499406386761023e-17,
        1.4470635307225085e-16,
        0,
        1.441677791933209e-16,
        -1.7430501486614988e-16,
        1.5700000000000018,
        0,
        5.2814710280019957e-17,
        1.570000000000002,
        8.71525074330749e-17,
        0,
        -9.135320869402354e-15,
        -104.29728669762459,
        8.121380606964644,
        0.9999999999999999
      ],
      "name": "Sphere",
      "mesh": 1
    },
    {
      "matrix": [
        -0.9999999999999998,
        1.224646799147329e-16,
        1.4997597826601566e-32,
        0,
        1.224646799147329e-16,
        0.9999999999999998,
        1.2246467991473374e-16,
        0,
        1.6245116777884273e-44,
        -3.4153521524329446e-16,
        2.7888466738416535,
        0,
        -11.599193212399127,
        -13.38520145084092,
        -86.62138060696473,
        0.9999999999999999
      ],
      "name": "Point Light 2",
      "extensions": {
        "KHR_lights_punctual": {
          "light": 0
        }
      }
    },
    {
      "matrix": [
        1,
        0,
        0,
        0,
        0,
        1,
        0,
        0,
        0,
        0,
        1,
        0,
        -17.356519279072415,
        177.85041110583887,
        -211.12138060696464,
        1
      ],
      "name": "sphere",
      "children": [
        6,
        7
      ]
    },
    {
      "matrix": [
        1,
        -1.2246467991473532e-16,
        -1.4997597826618576e-32,
        0,
        1.2246467991473532e-16,
        1,
        1.2246467991473532e-16,
        0,
        0,
        -4.0312616789771123e-16,
        3.2917749687369726,
        0,
        23.060769810284825,
        139.76911310589617,
        87.67,
        1
      ],
      "name": "pl",
      "extensions": {
        "KHR_lights_punctual": {
          "light": 1
        }
      }
    },
    {
      "matrix": [
        0.9999999937092803,
        2.10721871158162e-8,
        0.00011216701339912202,
        0,
        -0.0000012364607424049114,
        0.9999412938487856,
        0.010835536649738272,
        0,
        -0.00011216020017701636,
        -0.010835536720265057,
        0.9999412875584612,
        0,
        -15.827816842741198,
        98.86108566555521,
        594.2140739234902,
        1
      ],
      "camera": 0
    },
    {
      "name": "Scene 1",
      "children": [
        5,
        8,
        9,
        10
      ]
    }
  ],
  "bufferViews": [
    {
      "buffer": 0,
      "byteOffset": 0,
      "byteLength": 375876,
      "target": 34962,
      "byteStride": 12
    },
    {
      "buffer": 0,
      "byteOffset": 375876,
      "byteLength": 375876,
      "target": 34962,
      "byteStride": 12
    },
    {
      "buffer": 0,
      "byteOffset": 751752,
      "byteLength": 250584,
      "target": 34962,
      "byteStride": 8
    },
    {
      "buffer": 0,
      "byteOffset": 1002336,
      "byteLength": 50700,
      "target": 34962,
      "byteStride": 12
    },
    {
      "buffer": 0,
      "byteOffset": 1053036,
      "byteLength": 50700,
      "target": 34962,
      "byteStride": 12
    },
    {
      "buffer": 0,
      "byteOffset": 1103736,
      "byteLength": 33800,
      "target": 34962,
      "byteStride": 8
    },
    {
      "buffer": 0,
      "byteOffset": 1137536,
      "byteLength": 48384,
      "target": 34963
    }
  ],
  "buffers": [
    {
      "byteLength": 1185920,
      "uri": "data:application/octet-stream;base64,"
    }
  ],
  "accessors": [
    {
      "bufferView": 0,
      "componentType": 5126,
      "count": 31323,
      "max": [
        1.0001932382583618,
        -0.06308533996343613,
        1.0006394386291504
      ],
      "min": [
        -1.001228928565979,
        -0.40754300355911255,
        -1.0009801387786865
      ],
      "type": "VEC3"
    },
    {
      "bufferView": 1,
      "componentType": 5126,
      "count": 31323,
      "max": [
        0.927829921245575,
        0.17643389105796814,
        0.8550466895103455
      ],
      "min": [
        -0.9999985694885254,
        -0.9999575614929199,
        -0.9936773777008057
      ],
      "type": "VEC3"
    },
    {
      "bufferView": 2,
      "componentType": 5126,
      "count": 31323,
      "max": [
        1.0001111030578613,
        0.9982996582984924
      ],
      "min": [
        0,
        -0.00041346735088154674
      ],
      "type": "VEC2"
    },
    {
      "bufferView": 3,
      "componentType": 5126,
      "count": 4225,
      "max": [
        50,
        50,
        50
      ],
      "min": [
        -50,
        -50,
        -50
      ],
      "type": "VEC3"
    },
    {
      "bufferView": 4,
      "componentType": 5126,
      "count": 4225,
      "max": [
        1,
        1,
        1
      ],
      "min": [
        -1,
        -1,
        -1
      ],
      "type": "VEC3"
    },
    {
      "bufferView": 5,
      "componentType": 5126,
      "count": 4225,
      "max": [
        1.0078125,
        1
      ],
      "min": [
        -0.0078125,
        0
      ],
      "type": "VEC2"
    },
    {
      "bufferView": 6,
      "componentType": 5123,
      "count": 24192,
      "max": [
        4224
      ],
      "min": [
        0
      ],
      "type": "SCALAR"
    }
  ],
  "meshes": [
    {
      "primitives": [
        {
          "mode": 4,
          "attributes": {
            "POSITION": 0,
            "NORMAL": 1,
            "TEXCOORD_0": 2
          },
          "extras": {
            "parameters": {
              "width": 2.001422166824341,
              "height": 0.3444576635956764,
              "depth": 2.001619577407837,
              "subdivisions": 0
            },
            "type": "NonParametricGeometry"
          }
        }
      ]
    },
    {
      "primitives": [
        {
          "mode": 4,
          "attributes": {
            "POSITION": 3,
            "NORMAL": 4,
            "TEXCOORD_0": 5
          },
          "extras": {
            "parameters": {
              "width": 100,
              "widthSegments": 64,
              "heightSegments": 64,
              "phiStart": 0,
              "phiLength": 6.283185307179586,
              "thetaStart": 0,
              "thetaLength": 180,
              "height": 100,
              "depth": 100,
              "type": "SphereGeometry"
            },
            "type": "SphereGeometry"
          },
          "indices": 6
        }
      ]
    }
  ],
  "extensions": {
    "KHR_lights_punctual": {
      "lights": [
        {
          "name": "Point Light 2",
          "color": [
            0.9520631067961165,
            0.5131319737369213,
            0.2662332113911241
          ],
          "intensity": 10,
          "type": "point",
          "range": 518
        },
        {
          "name": "pl",
          "color": [
            1,
            1,
            1
          ],
          "intensity": 8,
          "type": "point",
          "range": 197
        }
      ]
    }
  },
  "cameras": [
    {
      "type": "perspective",
      "perspective": {
        "aspectRatio": 1.6415094339622642,
        "yfov": 0.7853981633974483,
        "zfar": 100000,
        "znear": 70
      }
    }
  ],
  "extensionsUsed": [
    "KHR_lights_punctual"
  ]
}